<svg width="796" height="796" viewBox="0 0 796 796" fill="none" xmlns="http://www.w3.org/2000/svg">
<path d="M398 796C617.809 796 796 617.809 796 398C796 178.191 617.809 0 398 0C178.191 0 0 178.191 0 398C0 617.809 178.191 796 398 796Z" fill="#474C5E"/>
<path d="M622 586.6H174C160.2 586.6 149 575.4 149 561.6V287.6C149 273.8 160.2 262.6 174 262.6H622C635.8 262.6 647 273.8 647 287.6V561.6C647 575.4 635.8 586.6 622 586.6Z" fill="#17BCE0"/>
<path d="M622 566.6H174C160.2 566.6 149 555.4 149 541.6V267.6C149 253.8 160.2 242.6 174 242.6H622C635.8 242.6 647 253.8 647 267.6V541.6C647 555.4 635.8 566.6 622 566.6Z" fill="#17BCE0"/>
<path d="M605.3 545.7H190.7C178.6 545.7 168.7 535.9 168.7 523.7V281.6C168.7 269.5 178.5 259.6 190.7 259.6H605.2C617.3 259.6 627.2 269.4 627.2 281.6V523.7C627.2 535.8 617.4 545.7 605.3 545.7Z" fill="white"/>
<path d="M603.7 538.3H192.3C183.5 538.3 176.4 531.2 176.4 522.4V282.9C176.4 274.1 183.5 267 192.3 267H603.8C612.6 267 619.7 274.1 619.7 282.9V522.4C619.7 531.2 612.5 538.3 603.7 538.3Z" fill="#17BCE0"/>
<path d="M347.3 221.8C346 221.8 344.7 221.3 343.8 220.3C341.8 218.3 341.8 215.2 343.8 213.2L429.9 127.1C431.9 125.1 435 125.1 437 127.1C439 129.1 439 132.2 437 134.2L350.9 220.3C349.9 221.3 348.6 221.8 347.3 221.8Z" fill="white"/>
<path d="M436.9 127.2C436.2 126.5 435.4 126.1 434.6 125.9C435 127.5 434.6 129.4 433.3 130.6L347.2 216.7C346.2 217.7 344.9 218.2 343.7 218.2C343.3 218.2 342.9 218.1 342.5 218C342.7 218.9 343.1 219.7 343.8 220.3C344.8 221.3 346.1 221.8 347.3 221.8C348.6 221.8 349.9 221.3 350.8 220.3L436.9 134.2C438.9 132.3 438.9 129.1 436.9 127.2Z" fill="white"/>
<path d="M445.203 142.521C451.725 136 451.724 125.426 445.202 118.904C438.681 112.382 428.107 112.383 421.585 118.904C415.063 125.426 415.064 136 421.585 142.522C428.107 149.043 438.681 149.043 445.203 142.521Z" fill="white"/>
<path d="M433.4 137.4C425.9 137.4 419.6 132.5 417.5 125.7C417 127.3 416.7 129 416.7 130.7C416.7 139.9 424.2 147.4 433.4 147.4C442.6 147.4 450.1 139.9 450.1 130.7C450.1 129 449.8 127.3 449.3 125.7C447.2 132.5 440.9 137.4 433.4 137.4Z" fill="white"/>
<path d="M347 221.8C345.7 221.8 344.4 221.3 343.5 220.3L257.4 134.2C255.4 132.2 255.4 129.1 257.4 127.1C259.4 125.1 262.5 125.1 264.5 127.1L350.6 213.2C352.6 215.2 352.6 218.3 350.6 220.3C349.6 221.3 348.3 221.8 347 221.8Z" fill="white"/>
<path d="M350.5 218.3C349.2 218.3 347.9 217.8 347 216.8L260.9 130.7C259.6 129.4 259.2 127.5 259.6 125.9C258.8 126.1 258 126.5 257.4 127.2C255.4 129.2 255.4 132.3 257.4 134.3L343.5 220.4C344.5 221.4 345.8 221.9 347 221.9C348.3 221.9 349.6 221.4 350.5 220.4C351.1 219.8 351.5 219 351.8 218.2C351.4 218.2 351 218.3 350.5 218.3Z" fill="white"/>
<path d="M272.711 142.537C279.232 136.015 279.232 125.441 272.71 118.919C266.188 112.398 255.615 112.398 249.093 118.92C242.571 125.442 242.571 136.015 249.093 142.537C255.615 149.059 266.189 149.058 272.711 142.537Z" fill="white"/>
<path d="M260.9 137.4C253.4 137.4 247.1 132.5 245 125.7C244.5 127.3 244.2 129 244.2 130.7C244.2 139.9 251.7 147.4 260.9 147.4C270.1 147.4 277.6 139.9 277.6 130.7C277.6 129 277.3 127.3 276.8 125.7C274.7 132.5 268.4 137.4 260.9 137.4Z" fill="white"/>
<path d="M470 510.3H251.7C224.1 510.3 201.7 487.9 201.7 460.3V339.6C201.7 312 224.1 289.6 251.7 289.6H470C497.6 289.6 520 312 520 339.6V460.3C520 487.9 497.6 510.3 470 510.3Z" fill="white"/>
<path d="M470 510.3H251.7C224.1 510.3 201.7 487.9 201.7 460.3V339.6C201.7 312 224.1 289.6 251.7 289.6H470C497.6 289.6 520 312 520 339.6V460.3C520 487.9 497.6 510.3 470 510.3Z" fill="white"/>
<path d="M409.7 422H312C256.8 422 211 381.4 202.9 328.4C202.1 332 201.6 335.7 201.6 339.6V460.3C201.6 487.9 224 510.3 251.6 510.3H470C497.6 510.3 520 487.9 520 460.3V339.6C520 335.8 519.6 332 518.7 328.4C510.7 381.4 464.9 422 409.7 422Z" fill="white"/>
<path d="M470 289.6H251.7C224.1 289.6 201.7 312 201.7 339.6V349.6C201.7 322 224.1 299.6 251.7 299.6H470C497.6 299.6 520 322 520 349.6V339.6C520 312 497.6 289.6 470 289.6Z" fill="white"/>
<path d="M598.8 507.5H539.8C537.5 507.5 535.6 505.6 535.6 503.3C535.6 501 537.5 499.1 539.8 499.1H598.8C601.1 499.1 603 501 603 503.3C603 505.6 601.1 507.5 598.8 507.5ZM598.8 490.5H539.8C537.5 490.5 535.6 488.6 535.6 486.3C535.6 484 537.5 482.1 539.8 482.1H598.8C601.1 482.1 603 484 603 486.3C603 488.6 601.1 490.5 598.8 490.5ZM598.8 473.5H539.8C537.5 473.5 535.6 471.6 535.6 469.3C535.6 467 537.5 465.1 539.8 465.1H598.8C601.1 465.1 603 467 603 469.3C603 471.6 601.1 473.5 598.8 473.5ZM598.8 456.5H539.8C537.5 456.5 535.6 454.6 535.6 452.3C535.6 450 537.5 448.1 539.8 448.1H598.8C601.1 448.1 603 450 603 452.3C603 454.6 601.1 456.5 598.8 456.5Z" fill="white"/>
<path d="M569.3 429.9C586.2 429.9 599.9 416.2 599.9 399.3C599.9 382.4 586.2 368.7 569.3 368.7C552.4 368.7 538.7 382.4 538.7 399.3C538.7 416.2 552.4 429.9 569.3 429.9Z" fill="#17BCE0"/>
<path d="M590.9 377.7C579 365.8 559.6 365.8 547.7 377.7C535.8 389.6 535.8 409 547.7 420.9C559.6 432.8 579 432.8 590.9 420.9C602.8 409 602.8 389.6 590.9 377.7ZM585.3 415.4C576.4 424.3 562 424.3 553.1 415.4C544.2 406.5 544.2 392.1 553.1 383.2C562 374.3 576.4 374.3 585.3 383.2C594.2 392.1 594.2 406.5 585.3 415.4Z" fill="white"/>
<path d="M557.6 411C555.6 409 555.6 405.8 557.6 403.9L573.8 387.7C575.8 385.7 579 385.7 580.9 387.7C582.9 389.7 582.9 392.9 580.9 394.8L564.7 411C562.7 412.9 559.5 412.9 557.6 411Z" fill="white"/>
<path d="M569.3 350.8C586.2 350.8 599.9 337.1 599.9 320.2C599.9 303.3 586.2 289.6 569.3 289.6C552.4 289.6 538.7 303.3 538.7 320.2C538.7 337.1 552.4 350.8 569.3 350.8Z" fill="#17BCE0"/>
<path d="M590.9 298.6C579 286.7 559.6 286.7 547.7 298.6C535.8 310.5 535.8 329.9 547.7 341.8C559.6 353.7 579 353.7 590.9 341.8C602.8 329.9 602.8 310.5 590.9 298.6ZM585.3 336.3C576.4 345.2 562 345.2 553.1 336.3C544.2 327.4 544.2 313 553.1 304.1C562 295.2 576.4 295.2 585.3 304.1C594.2 313 594.2 327.4 585.3 336.3Z" fill="white"/>
<path d="M557.6 331.9C555.6 329.9 555.6 326.7 557.6 324.8L573.8 308.6C575.8 306.6 579 306.6 580.9 308.6C582.9 310.6 582.9 313.8 580.9 315.7L564.7 331.9C562.7 333.8 559.5 333.8 557.6 331.9Z" fill="white"/>
<path d="M258 621C246.7 621 237.5 611.8 237.5 600.5V585.7H278.5V600.5C278.5 611.8 269.3 621 258 621ZM538 621C526.7 621 517.5 611.8 517.5 600.5V585.7H558.5V600.5C558.5 611.8 549.3 621 538 621Z" fill="#17BCE0"/>
<path d="M347.3 191C318.8 191 295.6 214.1 295.6 242.7H399C399 214.1 375.9 191 347.3 191Z" fill="white"/>
<path d="M295.6 242.6H315.6C315.6 214.1 329.8 190.9 347.3 190.9C318.8 191 295.6 214.1 295.6 242.6ZM347.3 191C364.8 191 379 214.1 379 242.7H399C399 214.1 375.9 191 347.3 191Z" fill="white"/>
<path d="M297.6 228.6C296.3 233.1 295.7 237.7 295.7 242.6H399C399 237.7 398.3 233.1 397.1 228.6H297.6Z" fill="white"/>
</svg>
