<svg viewBox="0 0 332 234" fill="none" xmlns="http://www.w3.org/2000/svg">
<path d="M70.85 233.99H9.13998C5.52998 233.99 2.59998 231.06 2.59998 227.45C2.59998 223.84 5.52998 220.91 9.13998 220.91H70.85C74.46 220.91 77.39 223.84 77.39 227.45C77.39 231.06 74.46 233.99 70.85 233.99ZM70.85 160.13H9.13998C5.52998 160.13 2.59998 157.2 2.59998 153.59C2.59998 149.98 5.52998 147.05 9.13998 147.05H70.85C74.46 147.05 77.39 149.98 77.39 153.59C77.39 157.2 74.46 160.13 70.85 160.13ZM70.85 85.56H9.13998C5.52998 85.56 2.59998 82.63 2.59998 79.02C2.59998 75.41 5.52998 72.48 9.13998 72.48H70.85C74.46 72.48 77.39 75.41 77.39 79.02C77.39 82.63 74.46 85.56 70.85 85.56ZM70.85 13.1H9.13998C5.52998 13.1 2.59998 10.17 2.59998 6.56002C2.59998 2.95002 5.52998 0.0200195 9.13998 0.0200195H70.85C74.46 0.0200195 77.39 2.95002 77.39 6.56002C77.39 10.17 74.46 13.1 70.85 13.1Z" fill="white"/>
<path d="M323.3 233.99H261.59C257.98 233.99 255.05 231.06 255.05 227.45C255.05 223.84 257.98 220.91 261.59 220.91H323.3C326.91 220.91 329.84 223.84 329.84 227.45C329.84 231.06 326.91 233.99 323.3 233.99ZM323.3 160.13H261.59C257.98 160.13 255.05 157.2 255.05 153.59C255.05 149.98 257.98 147.05 261.59 147.05H323.3C326.91 147.05 329.84 149.98 329.84 153.59C329.84 157.2 326.91 160.13 323.3 160.13ZM323.3 85.56H261.59C257.98 85.56 255.05 82.63 255.05 79.02C255.05 75.41 257.98 72.48 261.59 72.48H323.3C326.91 72.48 329.84 75.41 329.84 79.02C329.84 82.63 326.91 85.56 323.3 85.56ZM323.3 13.1H261.59C257.98 13.1 255.05 10.17 255.05 6.56002C255.05 2.95002 257.98 0.0200195 261.59 0.0200195H323.3C326.91 0.0200195 329.84 2.95002 329.84 6.56002C329.84 10.17 326.91 13.1 323.3 13.1Z" fill="white"/>
<path d="M70.97 233.9C69.24 233.9 67.57 233.21 66.35 231.99C65.12 230.76 64.43 229.1 64.43 227.36V7.11003C64.43 3.50003 67.35 0.57003 70.96 0.57003L261.79 0.280029H261.8C263.53 0.280029 265.2 0.970033 266.42 2.19003C267.65 3.42003 268.34 5.08003 268.34 6.82003L268.4 227.07C268.4 230.68 265.48 233.61 261.87 233.62L70.97 233.9C70.97 233.9 70.98 233.9 70.97 233.9ZM77.51 13.64V220.8L255.31 220.53L255.25 13.38L77.51 13.64Z" fill="white"/>
<path d="M149.39 167.37C148.56 167.37 147.72 167.21 146.92 166.89C144.45 165.89 142.84 163.49 142.84 160.83V74.81C142.84 72.18 144.42 69.8 146.84 68.78C149.27 67.76 152.07 68.29 153.95 70.12L196.96 112.05C198.2 113.26 198.91 114.92 198.94 116.65C198.96 118.39 198.29 120.06 197.08 121.3L154.07 165.39C152.82 166.69 151.12 167.37 149.39 167.37ZM155.93 90.33V144.75L183.14 116.86L155.93 90.33Z" fill="#00D1FF"/>
<path d="M7.18 233.59C5.44 233.59 3.78 232.9 2.55 231.67C1.32 230.44 0.630005 228.78 0.630005 227.04V6.80011C0.630005 3.19011 3.56 0.260109 7.17 0.260109L324.75 0.110107C326.49 0.110107 328.15 0.800106 329.38 2.03011C330.61 3.26011 331.3 4.92011 331.3 6.66011L331.36 226.91C331.36 230.52 328.43 233.45 324.82 233.46L7.18 233.59ZM13.73 13.3401V220.5L318.27 220.36L318.22 13.2001L13.73 13.3401Z" fill="white"/>
</svg>
